<svg width="364" height="346" viewBox="0 0 364 346" fill="none" xmlns="http://www.w3.org/2000/svg">
<path d="M364 172.7C364.004 158.326 358.56 144.485 348.764 133.966C345.457 130.626 342.949 126.582 341.426 122.136C339.903 117.69 339.405 112.957 339.969 108.291C340.001 108.037 340.016 107.78 340.015 107.524C339.98 93.5058 334.794 79.9892 325.444 69.5448C316.094 59.1003 303.231 52.4565 289.302 50.8766C287.564 37.051 280.999 24.2836 270.764 14.8276C265.057 9.57271 258.322 5.55893 250.984 3.03994C243.646 0.52095 235.866 -0.448467 228.135 0.192962C220.403 0.834392 212.889 3.07272 206.067 6.76647C199.245 10.4602 193.263 15.529 188.5 21.6526V114.2H216.593C221.763 114.194 226.72 112.138 230.376 108.482C234.032 104.827 236.088 99.8697 236.093 94.6996V77.9296C231.756 76.3963 228.101 73.3791 225.773 69.4115C223.446 65.4438 222.596 60.781 223.374 56.2473C224.152 51.7136 226.507 47.6008 230.024 44.6359C233.541 41.671 237.993 40.0448 242.593 40.0448C247.193 40.0448 251.645 41.671 255.162 44.6359C258.679 47.6008 261.034 51.7136 261.812 56.2473C262.59 60.781 261.74 65.4438 259.413 69.4115C257.085 73.3791 253.43 76.3963 249.093 77.9296V94.6996C249.083 103.316 245.655 111.576 239.562 117.669C233.47 123.762 225.209 127.189 216.593 127.2H188.5V149.274H262.054C267.224 149.268 272.181 147.212 275.837 143.556C279.493 139.901 281.549 134.944 281.554 129.774V113.004C277.217 111.47 273.562 108.453 271.234 104.485C268.907 100.518 268.057 95.855 268.835 91.3213C269.613 86.7876 271.968 82.6748 275.485 79.7099C279.002 76.745 283.454 75.1188 288.054 75.1188C292.654 75.1188 297.106 76.745 300.623 79.7099C304.14 82.6748 306.495 86.7876 307.273 91.3213C308.051 95.855 307.201 100.518 304.874 104.485C302.546 108.453 298.891 111.47 294.554 113.004V129.774C294.544 138.39 291.116 146.65 285.023 152.743C278.931 158.836 270.67 162.263 262.054 162.274H188.5V183.126H262.054C270.67 183.136 278.931 186.563 285.023 192.656C291.116 198.749 294.544 207.009 294.554 215.626V232.396C298.891 233.929 302.546 236.946 304.874 240.914C307.201 244.881 308.051 249.544 307.273 254.078C306.495 258.612 304.14 262.724 300.623 265.689C297.106 268.654 292.654 270.28 288.054 270.28C283.454 270.28 279.002 268.654 275.485 265.689C271.968 262.724 269.613 258.612 268.835 254.078C268.057 249.544 268.907 244.881 271.234 240.914C273.562 236.946 277.217 233.929 281.554 232.396V215.626C281.549 210.455 279.493 205.499 275.837 201.843C272.181 198.187 267.224 196.131 262.054 196.126H188.5V218.2H216.593C225.209 218.21 233.47 221.637 239.562 227.73C245.655 233.823 249.083 242.083 249.093 250.7V267.47C253.43 269.003 257.085 272.02 259.413 275.988C261.74 279.955 262.59 284.618 261.812 289.152C261.034 293.686 258.679 297.798 255.162 300.763C251.645 303.728 247.193 305.354 242.593 305.354C237.993 305.354 233.541 303.728 230.024 300.763C226.507 297.798 224.152 293.686 223.374 289.152C222.596 284.618 223.446 279.955 225.773 275.988C228.101 272.02 231.756 269.003 236.093 267.47V250.7C236.088 245.529 234.032 240.573 230.376 236.917C226.72 233.261 221.763 231.205 216.593 231.2H188.5V323.74C193.343 329.989 199.457 335.14 206.437 338.852C213.418 342.564 221.106 344.753 228.995 345.275C230.187 345.348 231.374 345.385 232.557 345.385C247.014 345.424 260.935 339.917 271.453 330C281.349 320.704 287.622 308.195 289.152 294.705C303.13 293.121 316.037 286.452 325.416 275.967C334.795 265.483 339.991 251.916 340.015 237.849C340.013 237.601 339.997 237.354 339.969 237.108C339.409 232.423 339.917 227.671 341.455 223.21C342.992 218.749 345.52 214.694 348.848 211.349C358.601 200.843 364.015 187.034 364 172.7ZM135.024 0.124579C127.422 -0.382359 119.795 0.661289 112.608 3.19214C105.421 5.723 98.8239 9.68824 93.2164 14.8471C86.6496 20.9082 81.5579 28.3924 78.3314 36.7261C81.184 46.303 86.5453 54.943 93.8599 61.7511C99.3194 66.1435 105.662 69.3063 112.456 71.0237C119.249 72.7411 126.333 72.9727 133.224 71.7026C134.937 71.5009 136.659 71.9878 138.013 73.0563C139.367 74.1247 140.24 75.6871 140.442 77.3998C140.644 79.1125 140.157 80.8352 139.089 82.1889C138.02 83.5426 136.458 84.4164 134.745 84.6181C131.328 85.0279 127.89 85.2363 124.449 85.2421C110.13 85.6964 96.155 80.7972 85.2539 71.5011C79.0153 65.9094 73.9511 59.1328 70.3559 51.5656C57.3332 54.0637 45.5848 61.0137 37.1245 71.2244C28.6643 81.435 24.019 94.2704 23.9849 107.531C24.645 112.335 24.1911 117.227 22.6582 121.828C21.1254 126.429 18.5546 130.615 15.1449 134.064C5.3932 144.592 -0.0168383 158.419 3.93711e-05 172.769C0.016917 187.12 5.45946 200.934 15.2359 211.44C18.6199 214.879 21.1687 219.049 22.6856 223.629C24.2026 228.209 24.6471 233.076 23.9849 237.856C23.9604 250.987 28.4713 263.724 36.7547 273.913C45.0382 284.102 56.5861 291.118 69.4459 293.775C72.3363 288.833 76.0013 284.387 80.3009 280.606C93.3464 269.257 111.39 265.11 133.913 268.243C135.587 268.519 137.087 269.439 138.092 270.807C139.097 272.174 139.527 273.88 139.291 275.56C139.055 277.24 138.172 278.762 136.829 279.799C135.487 280.837 133.791 281.309 132.106 281.113C113.503 278.52 98.9884 281.62 88.9069 290.35C83.9171 294.802 80.0278 300.351 77.5449 306.561C80.5344 315.484 85.6809 323.53 92.5274 329.987C103.052 339.917 116.986 345.429 131.456 345.385C139.959 345.367 148.346 343.409 155.978 339.66C163.611 335.912 170.287 330.471 175.5 323.753V155.423C170.129 156.509 164.665 157.068 159.185 157.093C153.3 157.119 147.436 156.385 141.739 154.909C138.229 154.818 113.756 154.584 105.326 169.092C104.912 169.858 104.348 170.534 103.669 171.078C102.989 171.622 102.206 172.024 101.368 172.26C100.53 172.496 99.6526 172.561 98.7887 172.452C97.9247 172.342 97.0916 172.06 96.3388 171.622C95.586 171.184 94.9288 170.6 94.4064 169.903C93.8839 169.206 93.5068 168.412 93.2974 167.566C93.088 166.721 93.0506 165.842 93.1874 164.982C93.3243 164.122 93.6325 163.298 94.0939 162.56C97.1847 157.8 101.206 153.714 105.917 150.548C110.627 147.383 115.93 145.202 121.504 144.139C115.515 138.551 111.065 131.515 108.582 123.709C108.032 122.074 108.155 120.287 108.922 118.742C109.689 117.197 111.039 116.02 112.674 115.47C114.309 114.92 116.096 115.043 117.641 115.81C119.186 116.577 120.363 117.927 120.913 119.562C130.923 149.365 163.475 144.906 175.5 142.13V21.6526C170.658 15.4077 164.547 10.2606 157.57 6.55087C150.593 2.84111 142.909 0.653058 135.024 0.131082V0.124579Z" fill="url(#paint0_linear_1115_241)"/>
<defs>
<linearGradient id="paint0_linear_1115_241" x1="0" y1="0" x2="396.004" y2="41.7377" gradientUnits="userSpaceOnUse">
<stop stop-color="#FFBC6F"/>
<stop offset="0.511418" stop-color="#F176B7"/>
<stop offset="1" stop-color="#3797CD"/>
</linearGradient>
</defs>
</svg>
